<svg xmlns="http://www.w3.org/2000/svg" width="1812" height="520" viewBox="0 0 1812 520">
	<rect width="100%" height="100%" fill="#ffffff"/>
	<text x="906" y="32" text-anchor="middle" font-family="Helvetica, Arial, sans-serif" font-size="18" font-weight="700" fill="#111827">Sentenças duplicadas</text>
	<text x="24" y="233" text-anchor="middle" font-family="Helvetica, Arial, sans-serif" font-size="12" fill="#374151" transform="rotate(-90 24 233)">Sentenças duplicadas</text>
	<line x1="72" y1="410" x2="1788" y2="410" stroke="#e5e7eb" stroke-width="1"/>
	<text x="64" y="414" text-anchor="end" font-family="Helvetica, Arial, sans-serif" font-size="11" fill="#6b7280">0</text>
	<line x1="72" y1="339" x2="1788" y2="339" stroke="#e5e7eb" stroke-width="1"/>
	<text x="64" y="343" text-anchor="end" font-family="Helvetica, Arial, sans-serif" font-size="11" fill="#6b7280">6198</text>
	<line x1="72" y1="268" x2="1788" y2="268" stroke="#e5e7eb" stroke-width="1"/>
	<text x="64" y="272" text-anchor="end" font-family="Helvetica, Arial, sans-serif" font-size="11" fill="#6b7280">12396</text>
	<line x1="72" y1="198" x2="1788" y2="198" stroke="#e5e7eb" stroke-width="1"/>
	<text x="64" y="202" text-anchor="end" font-family="Helvetica, Arial, sans-serif" font-size="11" fill="#6b7280">18594</text>
	<line x1="72" y1="127" x2="1788" y2="127" stroke="#e5e7eb" stroke-width="1"/>
	<text x="64" y="131" text-anchor="end" font-family="Helvetica, Arial, sans-serif" font-size="11" fill="#6b7280">24792</text>
	<line x1="72" y1="56" x2="1788" y2="56" stroke="#e5e7eb" stroke-width="1"/>
	<text x="64" y="60" text-anchor="end" font-family="Helvetica, Arial, sans-serif" font-size="11" fill="#6b7280">30990</text>
	<line x1="72" y1="56" x2="72" y2="410" stroke="#111827" stroke-width="1.5"/>
	<line x1="72" y1="410" x2="1788" y2="410" stroke="#111827" stroke-width="1.5"/>
	<rect x="78" y="393" width="7" height="17" fill="#6b7280"/>
	<rect x="86" y="391" width="7" height="19" fill="#2563eb"/>
	<rect x="94" y="393" width="7" height="17" fill="#d97706"/>
	<rect x="102" y="394" width="7" height="16" fill="#059669"/>
	<rect x="110" y="393" width="7" height="17" fill="#7c3ed"/>
	<rect x="118" y="393" width="7" height="17" fill="#dc2626"/>
	<rect x="126" y="395" width="7" height="15" fill="#0891b2"/>
	<rect x="134" y="395" width="7" height="15" fill="#7c3aed"/>
	<text x="110" y="426" text-anchor="end" font-family="Helvetica, Arial, sans-serif" font-size="10" fill="#111827" transform="rotate(-40 110 426)">roza</text>
	<rect x="156" y="407" width="7" height="3" fill="#6b7280"/>
	<rect x="164" y="407" width="7" height="3" fill="#2563eb"/>
	<rect x="172" y="407" width="7" height="3" fill="#d97706"/>
	<rect x="180" y="407" width="7" height="3" fill="#059669"/>
	<rect x="188" y="407" width="7" height="3" fill="#7c3ed"/>
	<rect x="196" y="407" width="7" height="3" fill="#dc2626"/>
	<rect x="204" y="407" width="7" height="3" fill="#0891b2"/>
	<rect x="212" y="407" width="7" height="3" fill="#7c3aed"/>
	<text x="188" y="426" text-anchor="end" font-family="Helvetica, Arial, sans-serif" font-size="10" fill="#111827" transform="rotate(-40 188 426)">commons-csv</text>
	<rect x="234" y="375" width="7" height="35" fill="#6b7280"/>
	<rect x="242" y="381" width="7" height="29" fill="#2563eb"/>
	<rect x="250" y="382" width="7" height="28" fill="#d97706"/>
	<rect x="258" y="378" width="7" height="32" fill="#059669"/>
	<rect x="266" y="382" width="7" height="28" fill="#7c3ed"/>
	<rect x="274" y="382" width="7" height="28" fill="#dc2626"/>
	<rect x="282" y="383" width="7" height="27" fill="#0891b2"/>
	<rect x="290" y="383" width="7" height="27" fill="#7c3aed"/>
	<text x="266" y="426" text-anchor="end" font-family="Helvetica, Arial, sans-serif" font-size="10" fill="#111827" transform="rotate(-40 266 426)">commons-lang</text>
	<rect x="312" y="350" width="7" height="60" fill="#6b7280"/>
	<rect x="320" y="353" width="7" height="57" fill="#2563eb"/>
	<rect x="328" y="356" width="7" height="54" fill="#d97706"/>
	<rect x="336" y="353" width="7" height="57" fill="#059669"/>
	<rect x="344" y="358" width="7" height="52" fill="#7c3ed"/>
	<rect x="352" y="354" width="7" height="56" fill="#dc2626"/>
	<rect x="360" y="361" width="7" height="49" fill="#0891b2"/>
	<rect x="368" y="357" width="7" height="53" fill="#7c3aed"/>
	<text x="344" y="426" text-anchor="end" font-family="Helvetica, Arial, sans-serif" font-size="10" fill="#111827" transform="rotate(-40 344 426)">commons-math</text>
	<rect x="390" y="396" width="7" height="14" fill="#6b7280"/>
	<rect x="398" y="397" width="7" height="13" fill="#2563eb"/>
	<rect x="406" y="398" width="7" height="12" fill="#d97706"/>
	<rect x="414" y="398" width="7" height="12" fill="#059669"/>
	<rect x="422" y="399" width="7" height="11" fill="#7c3ed"/>
	<rect x="430" y="399" width="7" height="11" fill="#dc2626"/>
	<rect x="438" y="399" width="7" height="11" fill="#0891b2"/>
	<rect x="446" y="399" width="7" height="11" fill="#7c3aed"/>
	<text x="422" y="426" text-anchor="end" font-family="Helvetica, Arial, sans-serif" font-size="10" fill="#111827" transform="rotate(-40 422 426)">commons-text</text>
	<rect x="468" y="410" width="7" height="0" fill="#6b7280"/>
	<rect x="476" y="410" width="7" height="0" fill="#2563eb"/>
	<rect x="484" y="410" width="7" height="0" fill="#d97706"/>
	<rect x="492" y="410" width="7" height="0" fill="#059669"/>
	<rect x="500" y="410" width="7" height="0" fill="#7c3ed"/>
	<rect x="508" y="410" width="7" height="0" fill="#dc2626"/>
	<rect x="516" y="410" width="7" height="0" fill="#0891b2"/>
	<rect x="524" y="410" width="7" height="0" fill="#7c3aed"/>
	<text x="500" y="426" text-anchor="end" font-family="Helvetica, Arial, sans-serif" font-size="10" fill="#111827" transform="rotate(-40 500 426)">java-string-similarity</text>
	<rect x="546" y="324" width="7" height="86" fill="#6b7280"/>
	<rect x="554" y="326" width="7" height="84" fill="#2563eb"/>
	<rect x="562" y="331" width="7" height="79" fill="#d97706"/>
	<rect x="570" y="333" width="7" height="77" fill="#059669"/>
	<rect x="578" y="336" width="7" height="74" fill="#7c3ed"/>
	<rect x="586" y="332" width="7" height="78" fill="#dc2626"/>
	<rect x="594" y="410" width="7" height="0" fill="#0891b2"/>
	<rect x="602" y="338" width="7" height="72" fill="#7c3aed"/>
	<text x="578" y="426" text-anchor="end" font-family="Helvetica, Arial, sans-serif" font-size="10" fill="#111827" transform="rotate(-40 578 426)">javaparser</text>
	<rect x="624" y="363" width="7" height="47" fill="#6b7280"/>
	<rect x="632" y="381" width="7" height="29" fill="#2563eb"/>
	<rect x="640" y="382" width="7" height="28" fill="#d97706"/>
	<rect x="648" y="371" width="7" height="39" fill="#059669"/>
	<rect x="656" y="383" width="7" height="27" fill="#7c3ed"/>
	<rect x="664" y="382" width="7" height="28" fill="#dc2626"/>
	<rect x="672" y="385" width="7" height="25" fill="#0891b2"/>
	<rect x="680" y="383" width="7" height="27" fill="#7c3aed"/>
	<text x="656" y="426" text-anchor="end" font-family="Helvetica, Arial, sans-serif" font-size="10" fill="#111827" transform="rotate(-40 656 426)">jfreechart</text>
	<rect x="702" y="405" width="7" height="5" fill="#6b7280"/>
	<rect x="710" y="405" width="7" height="5" fill="#2563eb"/>
	<rect x="718" y="405" width="7" height="5" fill="#d97706"/>
	<rect x="726" y="405" width="7" height="5" fill="#059669"/>
	<rect x="734" y="405" width="7" height="5" fill="#7c3ed"/>
	<rect x="742" y="405" width="7" height="5" fill="#dc2626"/>
	<rect x="750" y="405" width="7" height="5" fill="#0891b2"/>
	<rect x="758" y="405" width="7" height="5" fill="#7c3aed"/>
	<text x="734" y="426" text-anchor="end" font-family="Helvetica, Arial, sans-serif" font-size="10" fill="#111827" transform="rotate(-40 734 426)">joda-money</text>
	<rect x="780" y="391" width="7" height="19" fill="#6b7280"/>
	<rect x="788" y="395" width="7" height="15" fill="#2563eb"/>
	<rect x="796" y="395" width="7" height="15" fill="#d97706"/>
	<rect x="804" y="393" width="7" height="17" fill="#059669"/>
	<rect x="812" y="396" width="7" height="14" fill="#7c3ed"/>
	<rect x="820" y="396" width="7" height="14" fill="#dc2626"/>
	<rect x="828" y="397" width="7" height="13" fill="#0891b2"/>
	<rect x="836" y="397" width="7" height="13" fill="#7c3aed"/>
	<text x="812" y="426" text-anchor="end" font-family="Helvetica, Arial, sans-serif" font-size="10" fill="#111827" transform="rotate(-40 812 426)">gson</text>
	<rect x="858" y="408" width="7" height="2" fill="#6b7280"/>
	<rect x="866" y="409" width="7" height="1" fill="#2563eb"/>
	<rect x="874" y="409" width="7" height="1" fill="#d97706"/>
	<rect x="882" y="409" width="7" height="1" fill="#059669"/>
	<rect x="890" y="409" width="7" height="1" fill="#7c3ed"/>
	<rect x="898" y="409" width="7" height="1" fill="#dc2626"/>
	<rect x="906" y="409" width="7" height="1" fill="#0891b2"/>
	<rect x="914" y="409" width="7" height="1" fill="#7c3aed"/>
	<text x="890" y="426" text-anchor="end" font-family="Helvetica, Arial, sans-serif" font-size="10" fill="#111827" transform="rotate(-40 890 426)">java-hamcrest</text>
	<rect x="936" y="404" width="7" height="6" fill="#6b7280"/>
	<rect x="944" y="405" width="7" height="5" fill="#2563eb"/>
	<rect x="952" y="405" width="7" height="5" fill="#d97706"/>
	<rect x="960" y="405" width="7" height="5" fill="#059669"/>
	<rect x="968" y="405" width="7" height="5" fill="#7c3ed"/>
	<rect x="976" y="405" width="7" height="5" fill="#dc2626"/>
	<rect x="984" y="405" width="7" height="5" fill="#0891b2"/>
	<rect x="992" y="405" width="7" height="5" fill="#7c3aed"/>
	<text x="968" y="426" text-anchor="end" font-family="Helvetica, Arial, sans-serif" font-size="10" fill="#111827" transform="rotate(-40 968 426)">ektorp</text>
	<rect x="1014" y="397" width="7" height="13" fill="#6b7280"/>
	<rect x="1022" y="404" width="7" height="6" fill="#2563eb"/>
	<rect x="1030" y="404" width="7" height="6" fill="#d97706"/>
	<rect x="1038" y="400" width="7" height="10" fill="#059669"/>
	<rect x="1046" y="404" width="7" height="6" fill="#7c3ed"/>
	<rect x="1054" y="404" width="7" height="6" fill="#dc2626"/>
	<rect x="1062" y="404" width="7" height="6" fill="#0891b2"/>
	<rect x="1070" y="405" width="7" height="5" fill="#7c3aed"/>
	<text x="1046" y="426" text-anchor="end" font-family="Helvetica, Arial, sans-serif" font-size="10" fill="#111827" transform="rotate(-40 1046 426)">rest-assured</text>
	<rect x="1092" y="403" width="7" height="7" fill="#6b7280"/>
	<rect x="1100" y="404" width="7" height="6" fill="#2563eb"/>
	<rect x="1108" y="404" width="7" height="6" fill="#d97706"/>
	<rect x="1116" y="404" width="7" height="6" fill="#059669"/>
	<rect x="1124" y="404" width="7" height="6" fill="#7c3ed"/>
	<rect x="1132" y="404" width="7" height="6" fill="#dc2626"/>
	<rect x="1140" y="404" width="7" height="6" fill="#0891b2"/>
	<rect x="1148" y="404" width="7" height="6" fill="#7c3aed"/>
	<text x="1124" y="426" text-anchor="end" font-family="Helvetica, Arial, sans-serif" font-size="10" fill="#111827" transform="rotate(-40 1124 426)">junit4</text>
	<rect x="1170" y="401" width="7" height="9" fill="#6b7280"/>
	<rect x="1178" y="401" width="7" height="9" fill="#2563eb"/>
	<rect x="1186" y="401" width="7" height="9" fill="#d97706"/>
	<rect x="1194" y="402" width="7" height="8" fill="#059669"/>
	<rect x="1202" y="402" width="7" height="8" fill="#7c3ed"/>
	<rect x="1210" y="402" width="7" height="8" fill="#dc2626"/>
	<rect x="1218" y="402" width="7" height="8" fill="#0891b2"/>
	<rect x="1226" y="402" width="7" height="8" fill="#7c3aed"/>
	<text x="1202" y="426" text-anchor="end" font-family="Helvetica, Arial, sans-serif" font-size="10" fill="#111827" transform="rotate(-40 1202 426)">cobertura</text>
	<rect x="1248" y="410" width="7" height="0" fill="#6b7280"/>
	<rect x="1256" y="410" width="7" height="0" fill="#2563eb"/>
	<rect x="1264" y="410" width="7" height="0" fill="#d97706"/>
	<rect x="1272" y="410" width="7" height="0" fill="#059669"/>
	<rect x="1280" y="410" width="7" height="0" fill="#7c3ed"/>
	<rect x="1288" y="410" width="7" height="0" fill="#dc2626"/>
	<rect x="1296" y="410" width="7" height="0" fill="#0891b2"/>
	<rect x="1304" y="410" width="7" height="0" fill="#7c3aed"/>
	<text x="1280" y="426" text-anchor="end" font-family="Helvetica, Arial, sans-serif" font-size="10" fill="#111827" transform="rotate(-40 1280 426)">couchdb-lucene</text>
	<rect x="1326" y="407" width="7" height="3" fill="#6b7280"/>
	<rect x="1334" y="407" width="7" height="3" fill="#2563eb"/>
	<rect x="1342" y="407" width="7" height="3" fill="#d97706"/>
	<rect x="1350" y="407" width="7" height="3" fill="#059669"/>
	<rect x="1358" y="408" width="7" height="2" fill="#7c3ed"/>
	<rect x="1366" y="408" width="7" height="2" fill="#dc2626"/>
	<rect x="1374" y="408" width="7" height="2" fill="#0891b2"/>
	<rect x="1382" y="408" width="7" height="2" fill="#7c3aed"/>
	<text x="1358" y="426" text-anchor="end" font-family="Helvetica, Arial, sans-serif" font-size="10" fill="#111827" transform="rotate(-40 1358 426)">picon</text>
	<rect x="1404" y="342" width="7" height="68" fill="#6b7280"/>
	<rect x="1412" y="355" width="7" height="55" fill="#2563eb"/>
	<rect x="1420" y="357" width="7" height="53" fill="#d97706"/>
	<rect x="1428" y="347" width="7" height="63" fill="#059669"/>
	<rect x="1436" y="359" width="7" height="51" fill="#7c3ed"/>
	<rect x="1444" y="358" width="7" height="52" fill="#dc2626"/>
	<rect x="1452" y="360" width="7" height="50" fill="#0891b2"/>
	<rect x="1460" y="360" width="7" height="50" fill="#7c3aed"/>
	<text x="1436" y="426" text-anchor="end" font-family="Helvetica, Arial, sans-serif" font-size="10" fill="#111827" transform="rotate(-40 1436 426)">selenium</text>
	<rect x="1482" y="408" width="7" height="2" fill="#6b7280"/>
	<rect x="1490" y="408" width="7" height="2" fill="#2563eb"/>
	<rect x="1498" y="408" width="7" height="2" fill="#d97706"/>
	<rect x="1506" y="409" width="7" height="1" fill="#059669"/>
	<rect x="1514" y="409" width="7" height="1" fill="#7c3ed"/>
	<rect x="1522" y="409" width="7" height="1" fill="#dc2626"/>
	<rect x="1530" y="409" width="7" height="1" fill="#0891b2"/>
	<rect x="1538" y="409" width="7" height="1" fill="#7c3aed"/>
	<text x="1514" y="426" text-anchor="end" font-family="Helvetica, Arial, sans-serif" font-size="10" fill="#111827" transform="rotate(-40 1514 426)">saas+teste+moodle</text>
	<rect x="1560" y="140" width="7" height="270" fill="#6b7280"/>
	<rect x="1568" y="132" width="7" height="278" fill="#2563eb"/>
	<rect x="1576" y="148" width="7" height="262" fill="#d97706"/>
	<rect x="1584" y="188" width="7" height="222" fill="#059669"/>
	<rect x="1592" y="183" width="7" height="227" fill="#7c3ed"/>
	<rect x="1600" y="183" width="7" height="227" fill="#dc2626"/>
	<rect x="1608" y="196" width="7" height="214" fill="#0891b2"/>
	<rect x="1616" y="194" width="7" height="216" fill="#7c3aed"/>
	<text x="1592" y="426" text-anchor="end" font-family="Helvetica, Arial, sans-serif" font-size="10" fill="#111827" transform="rotate(-40 1592 426)">saas+teste+selenium</text>
	<rect x="1638" y="396" width="7" height="14" fill="#6b7280"/>
	<rect x="1646" y="397" width="7" height="13" fill="#2563eb"/>
	<rect x="1654" y="397" width="7" height="13" fill="#d97706"/>
	<rect x="1662" y="398" width="7" height="12" fill="#059669"/>
	<rect x="1670" y="399" width="7" height="11" fill="#7c3ed"/>
	<rect x="1678" y="399" width="7" height="11" fill="#dc2626"/>
	<rect x="1686" y="399" width="7" height="11" fill="#0891b2"/>
	<rect x="1694" y="399" width="7" height="11" fill="#7c3aed"/>
	<text x="1670" y="426" text-anchor="end" font-family="Helvetica, Arial, sans-serif" font-size="10" fill="#111827" transform="rotate(-40 1670 426)">saas+teste+service</text>
	<rect x="1716" y="99" width="7" height="311" fill="#6b7280"/>
	<rect x="1724" y="88" width="7" height="322" fill="#2563eb"/>
	<rect x="1732" y="111" width="7" height="299" fill="#d97706"/>
	<rect x="1740" y="410" width="7" height="0" fill="#059669"/>
	<rect x="1748" y="410" width="7" height="0" fill="#7c3ed"/>
	<rect x="1756" y="410" width="7" height="0" fill="#dc2626"/>
	<rect x="1764" y="410" width="7" height="0" fill="#0891b2"/>
	<rect x="1772" y="410" width="7" height="0" fill="#7c3aed"/>
	<text x="1748" y="426" text-anchor="end" font-family="Helvetica, Arial, sans-serif" font-size="10" fill="#111827" transform="rotate(-40 1748 426)">saas+teste</text>
	<rect x="72" y="498" width="10" height="10" fill="#6b7280"/>
	<text x="86" y="507" font-family="Helvetica, Arial, sans-serif" font-size="10" fill="#111827">original</text>
	<rect x="138" y="498" width="10" height="10" fill="#2563eb"/>
	<text x="152" y="507" font-family="Helvetica, Arial, sans-serif" font-size="10" fill="#111827">implicit</text>
	<rect x="204" y="498" width="10" height="10" fill="#d97706"/>
	<text x="218" y="507" font-family="Helvetica, Arial, sans-serif" font-size="10" fill="#111827">residual-implicit</text>
	<rect x="324" y="498" width="10" height="10" fill="#059669"/>
	<text x="338" y="507" font-family="Helvetica, Arial, sans-serif" font-size="10" fill="#111827">delegated</text>
	<rect x="396" y="498" width="10" height="10" fill="#7c3ed"/>
	<text x="410" y="507" font-family="Helvetica, Arial, sans-serif" font-size="10" fill="#111827">implicit+delegated</text>
	<rect x="522" y="498" width="10" height="10" fill="#dc2626"/>
	<text x="536" y="507" font-family="Helvetica, Arial, sans-serif" font-size="10" fill="#111827">delegated+implicit</text>
	<rect x="648" y="498" width="10" height="10" fill="#0891b2"/>
	<text x="662" y="507" font-family="Helvetica, Arial, sans-serif" font-size="10" fill="#111827">residual+delegated</text>
	<rect x="774" y="498" width="10" height="10" fill="#7c3aed"/>
	<text x="788" y="507" font-family="Helvetica, Arial, sans-serif" font-size="10" fill="#111827">delegated+residual-implicit</text>
</svg>
