<svg xmlns="http://www.w3.org/2000/svg" width="1812" height="520" viewBox="0 0 1812 520">
	<rect width="100%" height="100%" fill="#ffffff"/>
	<text x="906" y="32" text-anchor="middle" font-family="Helvetica, Arial, sans-serif" font-size="18" font-weight="700" fill="#111827">Porcentagem de diferença na duplicação</text>
	<text x="24" y="233" text-anchor="middle" font-family="Helvetica, Arial, sans-serif" font-size="12" fill="#374151" transform="rotate(-90 24 233)">Porcentagem de diferença (%)</text>
	<line x1="72" y1="410" x2="1788" y2="410" stroke="#e5e7eb" stroke-width="1"/>
	<text x="64" y="414" text-anchor="end" font-family="Helvetica, Arial, sans-serif" font-size="11" fill="#6b7280">0</text>
	<line x1="72" y1="339" x2="1788" y2="339" stroke="#e5e7eb" stroke-width="1"/>
	<text x="64" y="343" text-anchor="end" font-family="Helvetica, Arial, sans-serif" font-size="11" fill="#6b7280">2</text>
	<line x1="72" y1="268" x2="1788" y2="268" stroke="#e5e7eb" stroke-width="1"/>
	<text x="64" y="272" text-anchor="end" font-family="Helvetica, Arial, sans-serif" font-size="11" fill="#6b7280">4</text>
	<line x1="72" y1="198" x2="1788" y2="198" stroke="#e5e7eb" stroke-width="1"/>
	<text x="64" y="202" text-anchor="end" font-family="Helvetica, Arial, sans-serif" font-size="11" fill="#6b7280">7</text>
	<line x1="72" y1="127" x2="1788" y2="127" stroke="#e5e7eb" stroke-width="1"/>
	<text x="64" y="131" text-anchor="end" font-family="Helvetica, Arial, sans-serif" font-size="11" fill="#6b7280">9</text>
	<line x1="72" y1="56" x2="1788" y2="56" stroke="#e5e7eb" stroke-width="1"/>
	<text x="64" y="60" text-anchor="end" font-family="Helvetica, Arial, sans-serif" font-size="11" fill="#6b7280">11</text>
	<line x1="72" y1="56" x2="72" y2="410" stroke="#111827" stroke-width="1.5"/>
	<line x1="72" y1="410" x2="1788" y2="410" stroke="#111827" stroke-width="1.5"/>
	<rect x="78" y="410" width="7" height="0" fill="#6b7280"/>
	<rect x="86" y="117" width="7" height="293" fill="#2563eb"/>
	<rect x="94" y="490" width="7" height="-80" fill="#d97706"/>
	<rect x="102" y="677" width="7" height="-267" fill="#059669"/>
	<rect x="110" y="471" width="7" height="-61" fill="#7c3ed"/>
	<rect x="118" y="368" width="7" height="42" fill="#dc2626"/>
	<rect x="126" y="754" width="7" height="-344" fill="#0891b2"/>
	<rect x="134" y="751" width="7" height="-341" fill="#7c3aed"/>
	<text x="110" y="426" text-anchor="end" font-family="Helvetica, Arial, sans-serif" font-size="10" fill="#111827" transform="rotate(-40 110 426)">roza</text>
	<rect x="156" y="410" width="7" height="0" fill="#6b7280"/>
	<rect x="164" y="735" width="7" height="-325" fill="#2563eb"/>
	<rect x="172" y="819" width="7" height="-409" fill="#d97706"/>
	<rect x="180" y="410" width="7" height="0" fill="#059669"/>
	<rect x="188" y="735" width="7" height="-325" fill="#7c3ed"/>
	<rect x="196" y="735" width="7" height="-325" fill="#dc2626"/>
	<rect x="204" y="819" width="7" height="-409" fill="#0891b2"/>
	<rect x="212" y="819" width="7" height="-409" fill="#7c3aed"/>
	<text x="188" y="426" text-anchor="end" font-family="Helvetica, Arial, sans-serif" font-size="10" fill="#111827" transform="rotate(-40 188 426)">commons-csv</text>
	<rect x="234" y="410" width="7" height="0" fill="#6b7280"/>
	<rect x="242" y="890" width="7" height="-480" fill="#2563eb"/>
	<rect x="250" y="1018" width="7" height="-608" fill="#d97706"/>
	<rect x="258" y="629" width="7" height="-219" fill="#059669"/>
	<rect x="266" y="1034" width="7" height="-624" fill="#7c3ed"/>
	<rect x="274" y="1005" width="7" height="-595" fill="#dc2626"/>
	<rect x="282" y="1128" width="7" height="-718" fill="#0891b2"/>
	<rect x="290" y="1092" width="7" height="-682" fill="#7c3aed"/>
	<text x="266" y="426" text-anchor="end" font-family="Helvetica, Arial, sans-serif" font-size="10" fill="#111827" transform="rotate(-40 266 426)">commons-lang</text>
	<rect x="312" y="410" width="7" height="0" fill="#6b7280"/>
	<rect x="320" y="561" width="7" height="-151" fill="#2563eb"/>
	<rect x="328" y="754" width="7" height="-344" fill="#d97706"/>
	<rect x="336" y="561" width="7" height="-151" fill="#059669"/>
	<rect x="344" y="838" width="7" height="-428" fill="#7c3ed"/>
	<rect x="352" y="613" width="7" height="-203" fill="#dc2626"/>
	<rect x="360" y="992" width="7" height="-582" fill="#0891b2"/>
	<rect x="368" y="790" width="7" height="-380" fill="#7c3aed"/>
	<text x="344" y="426" text-anchor="end" font-family="Helvetica, Arial, sans-serif" font-size="10" fill="#111827" transform="rotate(-40 344 426)">commons-math</text>
	<rect x="390" y="410" width="7" height="0" fill="#6b7280"/>
	<rect x="398" y="677" width="7" height="-267" fill="#2563eb"/>
	<rect x="406" y="787" width="7" height="-377" fill="#d97706"/>
	<rect x="414" y="793" width="7" height="-383" fill="#059669"/>
	<rect x="422" y="989" width="7" height="-579" fill="#7c3ed"/>
	<rect x="430" y="970" width="7" height="-560" fill="#dc2626"/>
	<rect x="438" y="1102" width="7" height="-692" fill="#0891b2"/>
	<rect x="446" y="1067" width="7" height="-657" fill="#7c3aed"/>
	<text x="422" y="426" text-anchor="end" font-family="Helvetica, Arial, sans-serif" font-size="10" fill="#111827" transform="rotate(-40 422 426)">commons-text</text>
	<rect x="468" y="410" width="7" height="0" fill="#6b7280"/>
	<rect x="476" y="2515" width="7" height="-2105" fill="#2563eb"/>
	<rect x="484" y="2515" width="7" height="-2105" fill="#d97706"/>
	<rect x="492" y="410" width="7" height="0" fill="#059669"/>
	<rect x="500" y="2515" width="7" height="-2105" fill="#7c3ed"/>
	<rect x="508" y="2515" width="7" height="-2105" fill="#dc2626"/>
	<rect x="516" y="2515" width="7" height="-2105" fill="#0891b2"/>
	<rect x="524" y="2515" width="7" height="-2105" fill="#7c3aed"/>
	<text x="500" y="426" text-anchor="end" font-family="Helvetica, Arial, sans-serif" font-size="10" fill="#111827" transform="rotate(-40 500 426)">java-string-similarity</text>
	<rect x="546" y="410" width="7" height="0" fill="#6b7280"/>
	<rect x="554" y="481" width="7" height="-71" fill="#2563eb"/>
	<rect x="562" y="684" width="7" height="-274" fill="#d97706"/>
	<rect x="570" y="737" width="7" height="-327" fill="#059669"/>
	<rect x="578" y="848" width="7" height="-438" fill="#7c3ed"/>
	<rect x="586" y="703" width="7" height="-293" fill="#dc2626"/>
	<rect x="594" y="410" width="7" height="0" fill="#0891b2"/>
	<rect x="602" y="928" width="7" height="-518" fill="#7c3aed"/>
	<text x="578" y="426" text-anchor="end" font-family="Helvetica, Arial, sans-serif" font-size="10" fill="#111827" transform="rotate(-40 578 426)">javaparser</text>
	<rect x="624" y="410" width="7" height="0" fill="#6b7280"/>
	<rect x="632" y="1646" width="7" height="-1236" fill="#2563eb"/>
	<rect x="640" y="1733" width="7" height="-1323" fill="#d97706"/>
	<rect x="648" y="954" width="7" height="-544" fill="#059669"/>
	<rect x="656" y="1826" width="7" height="-1416" fill="#7c3ed"/>
	<rect x="664" y="1726" width="7" height="-1316" fill="#dc2626"/>
	<rect x="672" y="1897" width="7" height="-1487" fill="#0891b2"/>
	<rect x="680" y="1771" width="7" height="-1361" fill="#7c3aed"/>
	<text x="656" y="426" text-anchor="end" font-family="Helvetica, Arial, sans-serif" font-size="10" fill="#111827" transform="rotate(-40 656 426)">jfreechart</text>
	<rect x="702" y="410" width="7" height="0" fill="#6b7280"/>
	<rect x="710" y="532" width="7" height="-122" fill="#2563eb"/>
	<rect x="718" y="619" width="7" height="-209" fill="#d97706"/>
	<rect x="726" y="513" width="7" height="-103" fill="#059669"/>
	<rect x="734" y="635" width="7" height="-225" fill="#7c3ed"/>
	<rect x="742" y="635" width="7" height="-225" fill="#dc2626"/>
	<rect x="750" y="722" width="7" height="-312" fill="#0891b2"/>
	<rect x="758" y="722" width="7" height="-312" fill="#7c3aed"/>
	<text x="734" y="426" text-anchor="end" font-family="Helvetica, Arial, sans-serif" font-size="10" fill="#111827" transform="rotate(-40 734 426)">joda-money</text>
	<rect x="780" y="410" width="7" height="0" fill="#6b7280"/>
	<rect x="788" y="1054" width="7" height="-644" fill="#2563eb"/>
	<rect x="796" y="1157" width="7" height="-747" fill="#d97706"/>
	<rect x="804" y="790" width="7" height="-380" fill="#059669"/>
	<rect x="812" y="1321" width="7" height="-911" fill="#7c3ed"/>
	<rect x="820" y="1272" width="7" height="-862" fill="#dc2626"/>
	<rect x="828" y="1411" width="7" height="-1001" fill="#0891b2"/>
	<rect x="836" y="1353" width="7" height="-943" fill="#7c3aed"/>
	<text x="812" y="426" text-anchor="end" font-family="Helvetica, Arial, sans-serif" font-size="10" fill="#111827" transform="rotate(-40 812 426)">gson</text>
	<rect x="858" y="410" width="7" height="0" fill="#6b7280"/>
	<rect x="866" y="1298" width="7" height="-888" fill="#2563eb"/>
	<rect x="874" y="1298" width="7" height="-888" fill="#d97706"/>
	<rect x="882" y="1337" width="7" height="-927" fill="#059669"/>
	<rect x="890" y="1829" width="7" height="-1419" fill="#7c3ed"/>
	<rect x="898" y="1810" width="7" height="-1400" fill="#dc2626"/>
	<rect x="906" y="1829" width="7" height="-1419" fill="#0891b2"/>
	<rect x="914" y="1810" width="7" height="-1400" fill="#7c3aed"/>
	<text x="890" y="426" text-anchor="end" font-family="Helvetica, Arial, sans-serif" font-size="10" fill="#111827" transform="rotate(-40 890 426)">java-hamcrest</text>
	<rect x="936" y="410" width="7" height="0" fill="#6b7280"/>
	<rect x="944" y="880" width="7" height="-470" fill="#2563eb"/>
	<rect x="952" y="899" width="7" height="-489" fill="#d97706"/>
	<rect x="960" y="906" width="7" height="-496" fill="#059669"/>
	<rect x="968" y="1169" width="7" height="-759" fill="#7c3ed"/>
	<rect x="976" y="1182" width="7" height="-772" fill="#dc2626"/>
	<rect x="984" y="1189" width="7" height="-779" fill="#0891b2"/>
	<rect x="992" y="1176" width="7" height="-766" fill="#7c3aed"/>
	<text x="968" y="426" text-anchor="end" font-family="Helvetica, Arial, sans-serif" font-size="10" fill="#111827" transform="rotate(-40 968 426)">ektorp</text>
	<rect x="1014" y="410" width="7" height="0" fill="#6b7280"/>
	<rect x="1022" y="2038" width="7" height="-1628" fill="#2563eb"/>
	<rect x="1030" y="2096" width="7" height="-1686" fill="#d97706"/>
	<rect x="1038" y="1025" width="7" height="-615" fill="#059669"/>
	<rect x="1046" y="2080" width="7" height="-1670" fill="#7c3ed"/>
	<rect x="1054" y="2238" width="7" height="-1828" fill="#dc2626"/>
	<rect x="1062" y="2138" width="7" height="-1728" fill="#0891b2"/>
	<rect x="1070" y="2248" width="7" height="-1838" fill="#7c3aed"/>
	<text x="1046" y="426" text-anchor="end" font-family="Helvetica, Arial, sans-serif" font-size="10" fill="#111827" transform="rotate(-40 1046 426)">rest-assured</text>
	<rect x="1092" y="410" width="7" height="0" fill="#6b7280"/>
	<rect x="1100" y="539" width="7" height="-129" fill="#2563eb"/>
	<rect x="1108" y="635" width="7" height="-225" fill="#d97706"/>
	<rect x="1116" y="603" width="7" height="-193" fill="#059669"/>
	<rect x="1124" y="709" width="7" height="-299" fill="#7c3ed"/>
	<rect x="1132" y="703" width="7" height="-293" fill="#dc2626"/>
	<rect x="1140" y="806" width="7" height="-396" fill="#0891b2"/>
	<rect x="1148" y="815" width="7" height="-405" fill="#7c3aed"/>
	<text x="1124" y="426" text-anchor="end" font-family="Helvetica, Arial, sans-serif" font-size="10" fill="#111827" transform="rotate(-40 1124 426)">junit4</text>
	<rect x="1170" y="410" width="7" height="0" fill="#6b7280"/>
	<rect x="1178" y="558" width="7" height="-148" fill="#2563eb"/>
	<rect x="1186" y="574" width="7" height="-164" fill="#d97706"/>
	<rect x="1194" y="774" width="7" height="-364" fill="#059669"/>
	<rect x="1202" y="928" width="7" height="-518" fill="#7c3ed"/>
	<rect x="1210" y="902" width="7" height="-492" fill="#dc2626"/>
	<rect x="1218" y="938" width="7" height="-528" fill="#0891b2"/>
	<rect x="1226" y="941" width="7" height="-531" fill="#7c3aed"/>
	<text x="1202" y="426" text-anchor="end" font-family="Helvetica, Arial, sans-serif" font-size="10" fill="#111827" transform="rotate(-40 1202 426)">cobertura</text>
	<rect x="1248" y="410" width="7" height="0" fill="#6b7280"/>
	<rect x="1256" y="410" width="7" height="0" fill="#2563eb"/>
	<rect x="1264" y="410" width="7" height="0" fill="#d97706"/>
	<rect x="1272" y="986" width="7" height="-576" fill="#059669"/>
	<rect x="1280" y="986" width="7" height="-576" fill="#7c3ed"/>
	<rect x="1288" y="986" width="7" height="-576" fill="#dc2626"/>
	<rect x="1296" y="986" width="7" height="-576" fill="#0891b2"/>
	<rect x="1304" y="986" width="7" height="-576" fill="#7c3aed"/>
	<text x="1280" y="426" text-anchor="end" font-family="Helvetica, Arial, sans-serif" font-size="10" fill="#111827" transform="rotate(-40 1280 426)">couchdb-lucene</text>
	<rect x="1326" y="410" width="7" height="0" fill="#6b7280"/>
	<rect x="1334" y="523" width="7" height="-113" fill="#2563eb"/>
	<rect x="1342" y="777" width="7" height="-367" fill="#d97706"/>
	<rect x="1350" y="777" width="7" height="-367" fill="#059669"/>
	<rect x="1358" y="893" width="7" height="-483" fill="#7c3ed"/>
	<rect x="1366" y="967" width="7" height="-557" fill="#dc2626"/>
	<rect x="1374" y="1083" width="7" height="-673" fill="#0891b2"/>
	<rect x="1382" y="1070" width="7" height="-660" fill="#7c3aed"/>
	<text x="1358" y="426" text-anchor="end" font-family="Helvetica, Arial, sans-serif" font-size="10" fill="#111827" transform="rotate(-40 1358 426)">picon</text>
	<rect x="1404" y="410" width="7" height="0" fill="#6b7280"/>
	<rect x="1412" y="1005" width="7" height="-595" fill="#2563eb"/>
	<rect x="1420" y="1086" width="7" height="-676" fill="#d97706"/>
	<rect x="1428" y="606" width="7" height="-196" fill="#059669"/>
	<rect x="1436" y="1179" width="7" height="-769" fill="#7c3ed"/>
	<rect x="1444" y="1160" width="7" height="-750" fill="#dc2626"/>
	<rect x="1452" y="1250" width="7" height="-840" fill="#0891b2"/>
	<rect x="1460" y="1227" width="7" height="-817" fill="#7c3aed"/>
	<text x="1436" y="426" text-anchor="end" font-family="Helvetica, Arial, sans-serif" font-size="10" fill="#111827" transform="rotate(-40 1436 426)">selenium</text>
	<rect x="1482" y="410" width="7" height="0" fill="#6b7280"/>
	<rect x="1490" y="410" width="7" height="0" fill="#2563eb"/>
	<rect x="1498" y="410" width="7" height="0" fill="#d97706"/>
	<rect x="1506" y="1128" width="7" height="-718" fill="#059669"/>
	<rect x="1514" y="1128" width="7" height="-718" fill="#7c3ed"/>
	<rect x="1522" y="1128" width="7" height="-718" fill="#dc2626"/>
	<rect x="1530" y="1128" width="7" height="-718" fill="#0891b2"/>
	<rect x="1538" y="1128" width="7" height="-718" fill="#7c3aed"/>
	<text x="1514" y="426" text-anchor="end" font-family="Helvetica, Arial, sans-serif" font-size="10" fill="#111827" transform="rotate(-40 1514 426)">saas+teste+moodle</text>
	<rect x="1560" y="410" width="7" height="0" fill="#6b7280"/>
	<rect x="1568" y="310" width="7" height="100" fill="#2563eb"/>
	<rect x="1576" y="510" width="7" height="-100" fill="#d97706"/>
	<rect x="1584" y="989" width="7" height="-579" fill="#059669"/>
	<rect x="1592" y="918" width="7" height="-508" fill="#7c3ed"/>
	<rect x="1600" y="928" width="7" height="-518" fill="#dc2626"/>
	<rect x="1608" y="1083" width="7" height="-673" fill="#0891b2"/>
	<rect x="1616" y="1054" width="7" height="-644" fill="#7c3aed"/>
	<text x="1592" y="426" text-anchor="end" font-family="Helvetica, Arial, sans-serif" font-size="10" fill="#111827" transform="rotate(-40 1592 426)">saas+teste+selenium</text>
	<rect x="1638" y="410" width="7" height="0" fill="#6b7280"/>
	<rect x="1646" y="680" width="7" height="-270" fill="#2563eb"/>
	<rect x="1654" y="700" width="7" height="-290" fill="#d97706"/>
	<rect x="1662" y="716" width="7" height="-306" fill="#059669"/>
	<rect x="1670" y="960" width="7" height="-550" fill="#7c3ed"/>
	<rect x="1678" y="944" width="7" height="-534" fill="#dc2626"/>
	<rect x="1686" y="980" width="7" height="-570" fill="#0891b2"/>
	<rect x="1694" y="964" width="7" height="-554" fill="#7c3aed"/>
	<text x="1670" y="426" text-anchor="end" font-family="Helvetica, Arial, sans-serif" font-size="10" fill="#111827" transform="rotate(-40 1670 426)">saas+teste+service</text>
	<rect x="1716" y="410" width="7" height="0" fill="#6b7280"/>
	<rect x="1724" y="297" width="7" height="113" fill="#2563eb"/>
	<rect x="1732" y="529" width="7" height="-119" fill="#d97706"/>
	<rect x="1740" y="410" width="7" height="0" fill="#059669"/>
	<rect x="1748" y="410" width="7" height="0" fill="#7c3ed"/>
	<rect x="1756" y="410" width="7" height="0" fill="#dc2626"/>
	<rect x="1764" y="410" width="7" height="0" fill="#0891b2"/>
	<rect x="1772" y="410" width="7" height="0" fill="#7c3aed"/>
	<text x="1748" y="426" text-anchor="end" font-family="Helvetica, Arial, sans-serif" font-size="10" fill="#111827" transform="rotate(-40 1748 426)">saas+teste</text>
	<rect x="72" y="498" width="10" height="10" fill="#6b7280"/>
	<text x="86" y="507" font-family="Helvetica, Arial, sans-serif" font-size="10" fill="#111827">original</text>
	<rect x="138" y="498" width="10" height="10" fill="#2563eb"/>
	<text x="152" y="507" font-family="Helvetica, Arial, sans-serif" font-size="10" fill="#111827">implicit</text>
	<rect x="204" y="498" width="10" height="10" fill="#d97706"/>
	<text x="218" y="507" font-family="Helvetica, Arial, sans-serif" font-size="10" fill="#111827">residual-implicit</text>
	<rect x="324" y="498" width="10" height="10" fill="#059669"/>
	<text x="338" y="507" font-family="Helvetica, Arial, sans-serif" font-size="10" fill="#111827">delegated</text>
	<rect x="396" y="498" width="10" height="10" fill="#7c3ed"/>
	<text x="410" y="507" font-family="Helvetica, Arial, sans-serif" font-size="10" fill="#111827">implicit+delegated</text>
	<rect x="522" y="498" width="10" height="10" fill="#dc2626"/>
	<text x="536" y="507" font-family="Helvetica, Arial, sans-serif" font-size="10" fill="#111827">delegated+implicit</text>
	<rect x="648" y="498" width="10" height="10" fill="#0891b2"/>
	<text x="662" y="507" font-family="Helvetica, Arial, sans-serif" font-size="10" fill="#111827">residual-implicit+delegated</text>
	<rect x="774" y="498" width="10" height="10" fill="#7c3aed"/>
	<text x="788" y="507" font-family="Helvetica, Arial, sans-serif" font-size="10" fill="#111827">delegated+residual-implicit</text>
</svg>
