<svg xmlns="http://www.w3.org/2000/svg" width="1636" height="520" viewBox="0 0 1636 520">
	<rect width="100%" height="100%" fill="#ffffff"/>
	<text x="818" y="32" text-anchor="middle" font-family="Helvetica, Arial, sans-serif" font-size="18" font-weight="700" fill="#111827">Porcentagem de redução da duplicação</text>
	<text x="24" y="233" text-anchor="middle" font-family="Helvetica, Arial, sans-serif" font-size="12" fill="#374151" transform="rotate(-90 24 233)">Redução da duplicação (%)</text>
	<line x1="72" y1="410" x2="1612" y2="410" stroke="#e5e7eb" stroke-width="1"/>
	<text x="64" y="414" text-anchor="end" font-family="Helvetica, Arial, sans-serif" font-size="11" fill="#6b7280">-16</text>
	<line x1="72" y1="339" x2="1612" y2="339" stroke="#e5e7eb" stroke-width="1"/>
	<text x="64" y="343" text-anchor="end" font-family="Helvetica, Arial, sans-serif" font-size="11" fill="#6b7280">2</text>
	<line x1="72" y1="268" x2="1612" y2="268" stroke="#e5e7eb" stroke-width="1"/>
	<text x="64" y="272" text-anchor="end" font-family="Helvetica, Arial, sans-serif" font-size="11" fill="#6b7280">19</text>
	<line x1="72" y1="198" x2="1612" y2="198" stroke="#e5e7eb" stroke-width="1"/>
	<text x="64" y="202" text-anchor="end" font-family="Helvetica, Arial, sans-serif" font-size="11" fill="#6b7280">37</text>
	<line x1="72" y1="127" x2="1612" y2="127" stroke="#e5e7eb" stroke-width="1"/>
	<text x="64" y="131" text-anchor="end" font-family="Helvetica, Arial, sans-serif" font-size="11" fill="#6b7280">54</text>
	<line x1="72" y1="56" x2="1612" y2="56" stroke="#e5e7eb" stroke-width="1"/>
	<text x="64" y="60" text-anchor="end" font-family="Helvetica, Arial, sans-serif" font-size="11" fill="#6b7280">72</text>
	<line x1="72" y1="56" x2="72" y2="410" stroke="#111827" stroke-width="1.5"/>
	<line x1="72" y1="410" x2="1612" y2="410" stroke="#111827" stroke-width="1.5"/>
	<line x1="72" y1="346" x2="1612" y2="346" stroke="#111827" stroke-width="1"/>
	<rect x="78" y="346" width="7" height="37" fill="#6b7280"/>
	<rect x="86" y="336" width="7" height="10" fill="#2563eb"/>
	<rect x="94" y="313" width="7" height="33" fill="#d97706"/>
	<rect x="102" y="338" width="7" height="8" fill="#059669"/>
	<rect x="110" y="346" width="7" height="5" fill="#7c3ed"/>
	<rect x="118" y="303" width="7" height="43" fill="#dc2626"/>
	<rect x="126" y="303" width="7" height="43" fill="#0891b2"/>
	<text x="106" y="426" text-anchor="end" font-family="Helvetica, Arial, sans-serif" font-size="10" fill="#111827" transform="rotate(-40 106 426)">roza</text>
	<rect x="148" y="305" width="7" height="41" fill="#6b7280"/>
	<rect x="156" y="295" width="7" height="51" fill="#2563eb"/>
	<rect x="164" y="346" width="7" height="0" fill="#d97706"/>
	<rect x="172" y="305" width="7" height="41" fill="#059669"/>
	<rect x="180" y="305" width="7" height="41" fill="#7c3ed"/>
	<rect x="188" y="295" width="7" height="51" fill="#dc2626"/>
	<rect x="196" y="295" width="7" height="51" fill="#0891b2"/>
	<text x="176" y="426" text-anchor="end" font-family="Helvetica, Arial, sans-serif" font-size="10" fill="#111827" transform="rotate(-40 176 426)">commons-csv</text>
	<rect x="218" y="286" width="7" height="60" fill="#6b7280"/>
	<rect x="226" y="270" width="7" height="76" fill="#2563eb"/>
	<rect x="234" y="319" width="7" height="27" fill="#d97706"/>
	<rect x="242" y="268" width="7" height="78" fill="#059669"/>
	<rect x="250" y="272" width="7" height="74" fill="#7c3ed"/>
	<rect x="258" y="256" width="7" height="90" fill="#dc2626"/>
	<rect x="266" y="261" width="7" height="85" fill="#0891b2"/>
	<text x="246" y="426" text-anchor="end" font-family="Helvetica, Arial, sans-serif" font-size="10" fill="#111827" transform="rotate(-40 246 426)">commons-lang</text>
	<rect x="288" y="327" width="7" height="19" fill="#6b7280"/>
	<rect x="296" y="303" width="7" height="43" fill="#2563eb"/>
	<rect x="304" y="327" width="7" height="19" fill="#d97706"/>
	<rect x="312" y="292" width="7" height="54" fill="#059669"/>
	<rect x="320" y="321" width="7" height="25" fill="#7c3ed"/>
	<rect x="328" y="273" width="7" height="73" fill="#dc2626"/>
	<rect x="336" y="299" width="7" height="47" fill="#0891b2"/>
	<text x="316" y="426" text-anchor="end" font-family="Helvetica, Arial, sans-serif" font-size="10" fill="#111827" transform="rotate(-40 316 426)">commons-math</text>
	<rect x="358" y="313" width="7" height="33" fill="#6b7280"/>
	<rect x="366" y="299" width="7" height="47" fill="#2563eb"/>
	<rect x="374" y="298" width="7" height="48" fill="#d97706"/>
	<rect x="382" y="274" width="7" height="72" fill="#059669"/>
	<rect x="390" y="276" width="7" height="70" fill="#7c3ed"/>
	<rect x="398" y="260" width="7" height="86" fill="#dc2626"/>
	<rect x="406" y="264" width="7" height="82" fill="#0891b2"/>
	<text x="386" y="426" text-anchor="end" font-family="Helvetica, Arial, sans-serif" font-size="10" fill="#111827" transform="rotate(-40 386 426)">commons-text</text>
	<rect x="428" y="83" width="7" height="263" fill="#6b7280"/>
	<rect x="436" y="83" width="7" height="263" fill="#2563eb"/>
	<rect x="444" y="346" width="7" height="0" fill="#d97706"/>
	<rect x="452" y="83" width="7" height="263" fill="#059669"/>
	<rect x="460" y="83" width="7" height="263" fill="#7c3ed"/>
	<rect x="468" y="83" width="7" height="263" fill="#dc2626"/>
	<rect x="476" y="83" width="7" height="263" fill="#0891b2"/>
	<text x="456" y="426" text-anchor="end" font-family="Helvetica, Arial, sans-serif" font-size="10" fill="#111827" transform="rotate(-40 456 426)">java-string-similarity</text>
	<rect x="498" y="337" width="7" height="9" fill="#6b7280"/>
	<rect x="506" y="312" width="7" height="34" fill="#2563eb"/>
	<rect x="514" y="305" width="7" height="41" fill="#d97706"/>
	<rect x="522" y="291" width="7" height="55" fill="#059669"/>
	<rect x="530" y="309" width="7" height="37" fill="#7c3ed"/>
	<rect x="546" y="281" width="7" height="65" fill="#0891b2"/>
	<text x="526" y="426" text-anchor="end" font-family="Helvetica, Arial, sans-serif" font-size="10" fill="#111827" transform="rotate(-40 526 426)">javaparser</text>
	<rect x="568" y="192" width="7" height="154" fill="#6b7280"/>
	<rect x="576" y="181" width="7" height="165" fill="#2563eb"/>
	<rect x="584" y="278" width="7" height="68" fill="#d97706"/>
	<rect x="592" y="169" width="7" height="177" fill="#059669"/>
	<rect x="600" y="181" width="7" height="165" fill="#7c3ed"/>
	<rect x="608" y="160" width="7" height="186" fill="#dc2626"/>
	<rect x="616" y="176" width="7" height="170" fill="#0891b2"/>
	<text x="596" y="426" text-anchor="end" font-family="Helvetica, Arial, sans-serif" font-size="10" fill="#111827" transform="rotate(-40 596 426)">jfreechart</text>
	<rect x="638" y="331" width="7" height="15" fill="#6b7280"/>
	<rect x="646" y="320" width="7" height="26" fill="#2563eb"/>
	<rect x="654" y="333" width="7" height="13" fill="#d97706"/>
	<rect x="662" y="318" width="7" height="28" fill="#059669"/>
	<rect x="670" y="318" width="7" height="28" fill="#7c3ed"/>
	<rect x="678" y="307" width="7" height="39" fill="#dc2626"/>
	<rect x="686" y="307" width="7" height="39" fill="#0891b2"/>
	<text x="666" y="426" text-anchor="end" font-family="Helvetica, Arial, sans-serif" font-size="10" fill="#111827" transform="rotate(-40 666 426)">joda-money</text>
	<rect x="708" y="266" width="7" height="80" fill="#6b7280"/>
	<rect x="716" y="253" width="7" height="93" fill="#2563eb"/>
	<rect x="724" y="299" width="7" height="47" fill="#d97706"/>
	<rect x="732" y="232" width="7" height="114" fill="#059669"/>
	<rect x="740" y="238" width="7" height="108" fill="#7c3ed"/>
	<rect x="748" y="221" width="7" height="125" fill="#dc2626"/>
	<rect x="756" y="228" width="7" height="118" fill="#0891b2"/>
	<text x="736" y="426" text-anchor="end" font-family="Helvetica, Arial, sans-serif" font-size="10" fill="#111827" transform="rotate(-40 736 426)">gson</text>
	<rect x="778" y="235" width="7" height="111" fill="#6b7280"/>
	<rect x="786" y="235" width="7" height="111" fill="#2563eb"/>
	<rect x="794" y="230" width="7" height="116" fill="#d97706"/>
	<rect x="802" y="169" width="7" height="177" fill="#059669"/>
	<rect x="810" y="171" width="7" height="175" fill="#7c3ed"/>
	<rect x="818" y="169" width="7" height="177" fill="#dc2626"/>
	<rect x="826" y="171" width="7" height="175" fill="#0891b2"/>
	<text x="806" y="426" text-anchor="end" font-family="Helvetica, Arial, sans-serif" font-size="10" fill="#111827" transform="rotate(-40 806 426)">java-hamcrest</text>
	<rect x="848" y="287" width="7" height="59" fill="#6b7280"/>
	<rect x="856" y="285" width="7" height="61" fill="#2563eb"/>
	<rect x="864" y="284" width="7" height="62" fill="#d97706"/>
	<rect x="872" y="251" width="7" height="95" fill="#059669"/>
	<rect x="880" y="249" width="7" height="97" fill="#7c3ed"/>
	<rect x="888" y="249" width="7" height="97" fill="#dc2626"/>
	<rect x="896" y="250" width="7" height="96" fill="#0891b2"/>
	<text x="876" y="426" text-anchor="end" font-family="Helvetica, Arial, sans-serif" font-size="10" fill="#111827" transform="rotate(-40 876 426)">ektorp</text>
	<rect x="918" y="142" width="7" height="204" fill="#6b7280"/>
	<rect x="926" y="135" width="7" height="211" fill="#2563eb"/>
	<rect x="934" y="269" width="7" height="77" fill="#d97706"/>
	<rect x="942" y="137" width="7" height="209" fill="#059669"/>
	<rect x="950" y="118" width="7" height="228" fill="#7c3ed"/>
	<rect x="958" y="130" width="7" height="216" fill="#dc2626"/>
	<rect x="966" y="116" width="7" height="230" fill="#0891b2"/>
	<text x="946" y="426" text-anchor="end" font-family="Helvetica, Arial, sans-serif" font-size="10" fill="#111827" transform="rotate(-40 946 426)">rest-assured</text>
	<rect x="988" y="330" width="7" height="16" fill="#6b7280"/>
	<rect x="996" y="318" width="7" height="28" fill="#2563eb"/>
	<rect x="1004" y="322" width="7" height="24" fill="#d97706"/>
	<rect x="1012" y="309" width="7" height="37" fill="#059669"/>
	<rect x="1020" y="309" width="7" height="37" fill="#7c3ed"/>
	<rect x="1028" y="297" width="7" height="49" fill="#dc2626"/>
	<rect x="1036" y="295" width="7" height="51" fill="#0891b2"/>
	<text x="1016" y="426" text-anchor="end" font-family="Helvetica, Arial, sans-serif" font-size="10" fill="#111827" transform="rotate(-40 1016 426)">junit4</text>
	<rect x="1058" y="327" width="7" height="19" fill="#6b7280"/>
	<rect x="1066" y="325" width="7" height="21" fill="#2563eb"/>
	<rect x="1074" y="301" width="7" height="45" fill="#d97706"/>
	<rect x="1082" y="281" width="7" height="65" fill="#059669"/>
	<rect x="1090" y="284" width="7" height="62" fill="#7c3ed"/>
	<rect x="1098" y="280" width="7" height="66" fill="#dc2626"/>
	<rect x="1106" y="280" width="7" height="66" fill="#0891b2"/>
	<text x="1086" y="426" text-anchor="end" font-family="Helvetica, Arial, sans-serif" font-size="10" fill="#111827" transform="rotate(-40 1086 426)">cobertura</text>
	<rect x="1128" y="346" width="7" height="0" fill="#6b7280"/>
	<rect x="1136" y="346" width="7" height="0" fill="#2563eb"/>
	<rect x="1144" y="274" width="7" height="72" fill="#d97706"/>
	<rect x="1152" y="274" width="7" height="72" fill="#059669"/>
	<rect x="1160" y="274" width="7" height="72" fill="#7c3ed"/>
	<rect x="1168" y="274" width="7" height="72" fill="#dc2626"/>
	<rect x="1176" y="274" width="7" height="72" fill="#0891b2"/>
	<text x="1156" y="426" text-anchor="end" font-family="Helvetica, Arial, sans-serif" font-size="10" fill="#111827" transform="rotate(-40 1156 426)">couchdb-lucene</text>
	<rect x="1198" y="332" width="7" height="14" fill="#6b7280"/>
	<rect x="1206" y="300" width="7" height="46" fill="#2563eb"/>
	<rect x="1214" y="300" width="7" height="46" fill="#d97706"/>
	<rect x="1222" y="286" width="7" height="60" fill="#059669"/>
	<rect x="1230" y="276" width="7" height="70" fill="#7c3ed"/>
	<rect x="1238" y="262" width="7" height="84" fill="#dc2626"/>
	<rect x="1246" y="264" width="7" height="82" fill="#0891b2"/>
	<text x="1226" y="426" text-anchor="end" font-family="Helvetica, Arial, sans-serif" font-size="10" fill="#111827" transform="rotate(-40 1226 426)">picon</text>
	<rect x="1268" y="272" width="7" height="74" fill="#6b7280"/>
	<rect x="1276" y="262" width="7" height="84" fill="#2563eb"/>
	<rect x="1284" y="321" width="7" height="25" fill="#d97706"/>
	<rect x="1292" y="250" width="7" height="96" fill="#059669"/>
	<rect x="1300" y="252" width="7" height="94" fill="#7c3ed"/>
	<rect x="1308" y="241" width="7" height="105" fill="#dc2626"/>
	<rect x="1316" y="244" width="7" height="102" fill="#0891b2"/>
	<text x="1296" y="426" text-anchor="end" font-family="Helvetica, Arial, sans-serif" font-size="10" fill="#111827" transform="rotate(-40 1296 426)">selenium</text>
	<rect x="1338" y="346" width="7" height="14" fill="#6b7280"/>
	<rect x="1346" y="331" width="7" height="15" fill="#2563eb"/>
	<text x="1366" y="426" text-anchor="end" font-family="Helvetica, Arial, sans-serif" font-size="10" fill="#111827" transform="rotate(-40 1366 426)">saas+teste</text>
	<rect x="1408" y="346" width="7" height="0" fill="#6b7280"/>
	<rect x="1416" y="346" width="7" height="0" fill="#2563eb"/>
	<rect x="1424" y="256" width="7" height="90" fill="#d97706"/>
	<rect x="1432" y="256" width="7" height="90" fill="#059669"/>
	<rect x="1440" y="256" width="7" height="90" fill="#7c3ed"/>
	<rect x="1448" y="256" width="7" height="90" fill="#dc2626"/>
	<rect x="1456" y="256" width="7" height="90" fill="#0891b2"/>
	<text x="1436" y="426" text-anchor="end" font-family="Helvetica, Arial, sans-serif" font-size="10" fill="#111827" transform="rotate(-40 1436 426)">saas+teste+moodle</text>
	<rect x="1478" y="346" width="7" height="12" fill="#6b7280"/>
	<rect x="1486" y="334" width="7" height="12" fill="#2563eb"/>
	<rect x="1494" y="274" width="7" height="72" fill="#d97706"/>
	<rect x="1502" y="282" width="7" height="64" fill="#059669"/>
	<rect x="1510" y="281" width="7" height="65" fill="#7c3ed"/>
	<rect x="1518" y="262" width="7" height="84" fill="#dc2626"/>
	<rect x="1526" y="266" width="7" height="80" fill="#0891b2"/>
	<text x="1506" y="426" text-anchor="end" font-family="Helvetica, Arial, sans-serif" font-size="10" fill="#111827" transform="rotate(-40 1506 426)">saas+teste+selenium</text>
	<rect x="1548" y="312" width="7" height="34" fill="#6b7280"/>
	<rect x="1556" y="310" width="7" height="36" fill="#2563eb"/>
	<rect x="1564" y="308" width="7" height="38" fill="#d97706"/>
	<rect x="1572" y="277" width="7" height="69" fill="#059669"/>
	<rect x="1580" y="279" width="7" height="67" fill="#7c3ed"/>
	<rect x="1588" y="275" width="7" height="71" fill="#dc2626"/>
	<rect x="1596" y="277" width="7" height="69" fill="#0891b2"/>
	<text x="1576" y="426" text-anchor="end" font-family="Helvetica, Arial, sans-serif" font-size="10" fill="#111827" transform="rotate(-40 1576 426)">saas+teste+service</text>
	<rect x="72" y="498" width="10" height="10" fill="#6b7280"/>
	<text x="86" y="507" font-family="Helvetica, Arial, sans-serif" font-size="10" fill="#111827">implicit</text>
	<rect x="138" y="498" width="10" height="10" fill="#2563eb"/>
	<text x="152" y="507" font-family="Helvetica, Arial, sans-serif" font-size="10" fill="#111827">residual-implicit</text>
	<rect x="258" y="498" width="10" height="10" fill="#d97706"/>
	<text x="272" y="507" font-family="Helvetica, Arial, sans-serif" font-size="10" fill="#111827">delegated</text>
	<rect x="330" y="498" width="10" height="10" fill="#059669"/>
	<text x="344" y="507" font-family="Helvetica, Arial, sans-serif" font-size="10" fill="#111827">implicit+delegated</text>
	<rect x="456" y="498" width="10" height="10" fill="#7c3ed"/>
	<text x="470" y="507" font-family="Helvetica, Arial, sans-serif" font-size="10" fill="#111827">delegated+implicit</text>
	<rect x="582" y="498" width="10" height="10" fill="#dc2626"/>
	<text x="596" y="507" font-family="Helvetica, Arial, sans-serif" font-size="10" fill="#111827">residual-implicit+delegated</text>
	<rect x="762" y="498" width="10" height="10" fill="#0891b2"/>
	<text x="776" y="507" font-family="Helvetica, Arial, sans-serif" font-size="10" fill="#111827">delegated+residual-implicit</text>
</svg>
